<svg xmlns="http://www.w3.org/2000/svg" xmlns:xlink="http://www.w3.org/1999/xlink" version="1.0" x="0" y="0" width="2400" height="555.6058891793925" viewBox="78.70143203735351 103.86415939331054 182.59713592529297 42.27168502807617" preserveAspectRatio="xMidYMid meet" color-interpolation-filters="sRGB"><g><defs><linearGradient id="92" x1="0%" y1="0%" x2="100%" y2="0%"><stop offset="0%" stop-color="#fa71cd"></stop> <stop offset="100%" stop-color="#9b59b6"></stop></linearGradient><linearGradient id="93" x1="0%" y1="0%" x2="100%" y2="0%"><stop offset="0%" stop-color="#f9d423"></stop> <stop offset="100%" stop-color="#f83600"></stop></linearGradient><linearGradient id="94" x1="0%" y1="0%" x2="100%" y2="0%"><stop offset="0%" stop-color="#0064d2"></stop> <stop offset="100%" stop-color="#1cb0f6"></stop></linearGradient><linearGradient id="95" x1="0%" y1="0%" x2="100%" y2="0%"><stop offset="0%" stop-color="#f00978"></stop> <stop offset="100%" stop-color="#3f51b1"></stop></linearGradient><linearGradient id="96" x1="0%" y1="0%" x2="100%" y2="0%"><stop offset="0%" stop-color="#7873f5"></stop> <stop offset="100%" stop-color="#ec77ab"></stop></linearGradient><linearGradient id="97" x1="0%" y1="0%" x2="100%" y2="0%"><stop offset="0%" stop-color="#f9d423"></stop> <stop offset="100%" stop-color="#e14fad"></stop></linearGradient><linearGradient id="98" x1="0%" y1="0%" x2="100%" y2="0%"><stop offset="0%" stop-color="#009efd"></stop> <stop offset="100%" stop-color="#2af598"></stop></linearGradient><linearGradient id="99" x1="0%" y1="0%" x2="100%" y2="0%"><stop offset="0%" stop-color="#ffcc00"></stop> <stop offset="100%" stop-color="#00b140"></stop></linearGradient><linearGradient id="100" x1="0%" y1="0%" x2="100%" y2="0%"><stop offset="0%" stop-color="#d51007"></stop> <stop offset="100%" stop-color="#ff8177"></stop></linearGradient><linearGradient id="102" x1="0%" y1="0%" x2="100%" y2="0%"><stop offset="0%" stop-color="#a2b6df"></stop> <stop offset="100%" stop-color="#0c3483"></stop></linearGradient><linearGradient id="103" x1="0%" y1="0%" x2="100%" y2="0%"><stop offset="0%" stop-color="#7ac5d8"></stop> <stop offset="100%" stop-color="#eea2a2"></stop></linearGradient><linearGradient id="104" x1="0%" y1="0%" x2="100%" y2="0%"><stop offset="0%" stop-color="#00ecbc"></stop> <stop offset="100%" stop-color="#007adf"></stop></linearGradient><linearGradient id="105" x1="0%" y1="0%" x2="100%" y2="0%"><stop offset="0%" stop-color="#b88746"></stop> <stop offset="100%" stop-color="#fdf5a6"></stop></linearGradient></defs><g fill="#020f40" class="iconlinesvg-g iconlinesvg" transform="translate(80.4916000366211,105.65432548522949)"><g class="tp-name"><g transform="translate(0, 0)"><g><g class="imagesvg"><g><rect fill="#020f40" fill-opacity="0" stroke-width="2" x="0" y="0" width="35.69044895034872" height="38.691350061086595" class="image-rect"></rect> <svg x="0" y="0" width="35.69044895034872" height="38.691350061086595" filtersec="colorsb5293448927" class="image-svg-svg primary" style="overflow: visible;"><svg xmlns="http://www.w3.org/2000/svg" viewBox="0 0 56.61000061035156 61.37000274658203"><g><g><path fill="#FFA500" d="M28.21 61.18l28.4-41.24V0l-28.3 40.51L0 0v20.22l28.21 40.96-.03.01.13.18.05-.09-.15-.1z"></path><path fill="#020f40" d="M0 25.51v35.86h12.26V43.32L0 25.51zM44.18 43.28v18.09h12.43V25.23L44.18 43.28z"></path></g></g></svg></svg> </g></g></g></g><g transform="translate(41, 10.447919979865647)"><g fill="#020f40" transform="scale(1)"><path d="M4.84 0L1.88 0L1.88-20.94L4.84-20.94L4.84 0ZM1.88-24.84L1.88-27.80L4.84-27.80L4.84-24.84L1.88-24.84Z" transform="translate(-1.8770993834681502, 27.7955101013553)"></path></g></g><g transform="translate(47, 10.447919979865647)"><g fill="#020f40" transform="scale(1)"><path d="M6.21-2.96L6.21-2.96L23.17-2.96L23.17 0L6.21 0Q4.40 0 3.12-1.28Q1.84-2.56 1.84-4.37L1.84-4.37L1.84-16.57Q1.84-18.37 3.12-19.66Q4.40-20.94 6.21-20.94L6.21-20.94L23.10-20.94L23.10-17.98L6.21-17.98Q5.63-17.98 5.22-17.56Q4.80-17.15 4.80-16.57L4.80-16.57L4.80-4.37Q4.80-3.79 5.22-3.38Q5.63-2.96 6.21-2.96Z" transform="translate(-1.841001318401455, 27.7955101013553)"></path></g></g><g transform="translate(72, 10.447919979865647)"><g fill="#020f40" transform="scale(1)"><path d="M6.24-20.94L6.24-20.94L18.01-20.94L18.01-17.98L6.24-17.98Q5.67-17.98 5.25-17.56Q4.84-17.15 4.84-16.57L4.84-16.57L4.84 0L1.88 0L1.88-16.57Q1.88-18.37 3.16-19.66Q4.44-20.94 6.24-20.94Z" transform="translate(-1.8770993834681502, 27.7955101013553)"></path></g></g><g transform="translate(92, 10.447919979865647)"><g fill="#020f40" transform="scale(1)"><path d="M6.21-20.94L6.21-20.94L18.77-20.94Q20.61-20.94 21.89-19.66Q23.17-18.37 23.17-16.57L23.17-16.57L23.17-4.37Q23.17-2.56 21.89-1.28Q20.61 0 18.77 0L18.77 0L6.21 0Q4.40 0 3.12-1.28Q1.84-2.56 1.84-4.37L1.84-4.37L1.84-16.57Q1.84-18.37 3.12-19.66Q4.40-20.94 6.21-20.94ZM18.77-17.98L18.77-17.98L6.21-17.98Q5.63-17.98 5.22-17.56Q4.80-17.15 4.80-16.57L4.80-16.57L4.80-4.37Q4.80-3.79 5.22-3.38Q5.63-2.96 6.21-2.96L6.21-2.96L18.77-2.96Q19.35-2.96 19.76-3.38Q20.18-3.79 20.18-4.37L20.18-4.37L20.18-16.57Q20.18-17.15 19.76-17.56Q19.35-17.98 18.77-17.98Z" transform="translate(-1.8410013184014546, 27.7955101013553)"></path></g></g><g transform="translate(117, 10.447919979865647)"><g fill="#020f40" transform="scale(1)"><path d="M1.95-20.94L18.92-20.94Q20.72-20.94 22.00-19.66Q23.28-18.37 23.28-16.57L23.28-16.57L23.28 0L20.32 0L20.32-16.57Q20.32-17.15 19.91-17.56Q19.49-17.98 18.92-17.98L18.92-17.98L6.35-17.98Q5.78-17.98 5.34-17.56Q4.91-17.15 4.91-16.57L4.91-16.57L4.91 0L1.95 0L1.95-20.94Z" transform="translate(-1.9492955136015406, 27.7955101013553)"></path></g></g><g transform="translate(142, 10.447919979865647)"><g fill="#020f40" transform="scale(1)"><path d="M6.21-20.94L18.77-20.94Q20.61-20.94 21.89-19.66Q23.17-18.37 23.17-16.57L23.17-16.57L23.17-8.99L4.80-8.99L4.80-4.37Q4.80-3.79 5.22-3.38Q5.63-2.96 6.21-2.96L6.21-2.96L23.17-2.96L23.17 0L6.21 0Q4.40 0 3.12-1.28Q1.84-2.56 1.84-4.37L1.84-4.37L1.84-16.57Q1.84-18.37 3.12-19.66Q4.40-20.94 6.21-20.94L6.21-20.94ZM4.80-16.57L4.80-11.95L20.18-11.95L20.18-16.57Q20.18-17.15 19.76-17.56Q19.35-17.98 18.77-17.98L18.77-17.98L6.21-17.98Q5.63-17.98 5.22-17.56Q4.80-17.15 4.80-16.57L4.80-16.57Z" transform="translate(-1.841001318401455, 27.7955101013553)"></path></g></g><g transform="translate(167, 10.447919979865647)"><g fill="#020f40" transform="scale(1)"><path d="M13.93-20.94L13.93-17.98L4.87-17.98L4.87-4.37Q4.87-3.79 5.29-3.38Q5.70-2.96 6.28-2.96L6.28-2.96L13.93-2.96L13.93 0L6.28 0Q4.44 0 3.18-1.28Q1.91-2.56 1.91-4.37L1.91-4.37L1.91-27.80L4.87-27.80L4.87-20.94L13.93-20.94Z" transform="translate(-1.913197448534845, 27.7955101013553)"></path></g></g></g> </g><defs v-gra="od"></defs></g></svg>